<mxfile host="app.diagrams.net" modified="2023-06-06T15:28:32.510Z" agent="Mozilla/5.0 (X11; Ubuntu; Linux x86_64; rv:108.0) Gecko/20100101 Firefox/108.0" version="21.3.7" etag="lPzf98KkyKRCP6V5T0lA" type="github">
  <diagram name="Page-1" id="35B_SbrOQ0qy9YOBfq_R">
    <mxGraphModel>
      <root>
        <mxCell id="0" />
        <mxCell id="1" parent="0" />
      </root>
    </mxGraphModel>
  </diagram>
</mxfile>
